<svg width="12" height="7" viewBox="0 0 12 7" fill="none" xmlns="http://www.w3.org/2000/svg">
<path d="M5.98212 6.9787C5.85051 6.97946 5.72005 6.95424 5.59821 6.90447C5.47638 6.85471 5.36556 6.78138 5.27212 6.6887L1.27212 2.6887C1.17888 2.59546 1.10492 2.48477 1.05446 2.36295C1.004 2.24113 0.978027 2.11056 0.978027 1.9787C0.978027 1.84684 1.004 1.71627 1.05446 1.59445C1.10492 1.47263 1.17888 1.36194 1.27212 1.2687C1.36536 1.17546 1.47605 1.1015 1.59787 1.05104C1.71969 1.00058 1.85026 0.974609 1.98212 0.974609C2.11398 0.974609 2.24455 1.00058 2.36637 1.05104C2.48819 1.1015 2.59888 1.17546 2.69212 1.2687L5.98212 4.5787L9.28212 1.3987C9.37411 1.29641 9.48622 1.2142 9.61143 1.15722C9.73664 1.10023 9.87227 1.06969 10.0098 1.06751C10.1474 1.06533 10.2839 1.09156 10.4109 1.14455C10.5378 1.19754 10.6525 1.27616 10.7477 1.37548C10.8428 1.47481 10.9165 1.5927 10.964 1.7218C11.0116 1.85089 11.032 1.98841 11.024 2.12574C11.0159 2.26308 10.9797 2.39728 10.9174 2.51996C10.8551 2.64263 10.7682 2.75114 10.6621 2.8387L6.66212 6.6987C6.47924 6.87502 6.23612 6.97512 5.98212 6.9787Z" fill="#72727E"/>
</svg>
