<svg width="10" height="14" viewBox="0 0 10 14" fill="none" xmlns="http://www.w3.org/2000/svg">
<path d="M9.31969 5.17375C8.93254 4.14591 8.36805 3.19398 7.65187 2.36125C6.4125 0.926562 4.78281 0 3.5 0C3.42372 5.6885e-05 3.34847 0.0175648 3.28 0.0511837C3.21153 0.0848026 3.15166 0.133641 3.10497 0.193961C3.05829 0.254281 3.02602 0.324483 3.01064 0.399194C2.99526 0.473906 2.99718 0.551145 3.01625 0.625C3.44969 2.28125 2.55125 3.65844 1.60031 5.11625C0.8125 6.32375 0 7.57094 0 9C0 11.7569 2.24312 14 5 14C7.75688 14 10 11.7569 10 9C10 7.64688 9.77125 6.35969 9.31969 5.17375ZM6.01031 12.0841C5.6875 12.4278 5.28281 12.5 5 12.5C4.71719 12.5 4.3125 12.4278 3.98969 12.0841C3.66687 11.7403 3.5 11.195 3.5 10.5C3.5 9.71438 3.77562 9.11625 4.04187 8.53813C4.19656 8.2025 4.35437 7.86094 4.44812 7.49531C4.45808 7.45554 4.47766 7.41883 4.50515 7.38841C4.53263 7.35799 4.56718 7.3348 4.60574 7.32087C4.6443 7.30695 4.68569 7.30272 4.72627 7.30856C4.76685 7.31441 4.80537 7.33014 4.83844 7.35437C5.12425 7.57551 5.37839 7.8348 5.59375 8.125C6.16156 8.875 6.5 9.76313 6.5 10.5C6.5 11.195 6.33062 11.7428 6.01031 12.0841Z" fill="#FF7733"/>
</svg>
