<svg width="24" height="24" viewBox="0 0 24 24" fill="none" xmlns="http://www.w3.org/2000/svg">
<path d="M20.0999 18.5999H18.2999C18.0612 18.5999 17.8323 18.5051 17.6635 18.3363C17.4947 18.1675 17.3999 17.9386 17.3999 17.6999V6.2999C17.3999 6.06121 17.4947 5.83229 17.6635 5.66351C17.8323 5.49472 18.0612 5.3999 18.2999 5.3999H20.0999C20.3386 5.3999 20.5675 5.49472 20.7363 5.66351C20.9051 5.83229 20.9999 6.06121 20.9999 6.2999V17.6999C20.9999 17.9386 20.9051 18.1675 20.7363 18.3363C20.5675 18.5051 20.3386 18.5999 20.0999 18.5999Z" fill="#CECED9"/>
<path d="M15.3001 18.5999H13.5001C13.2614 18.5999 13.0325 18.5051 12.8637 18.3363C12.6949 18.1675 12.6001 17.9386 12.6001 17.6999V9.2999C12.6001 9.06121 12.6949 8.83229 12.8637 8.66351C13.0325 8.49472 13.2614 8.3999 13.5001 8.3999H15.3001C15.5388 8.3999 15.7677 8.49472 15.9365 8.66351C16.1053 8.83229 16.2001 9.06121 16.2001 9.2999V17.6999C16.2001 17.9386 16.1053 18.1675 15.9365 18.3363C15.7677 18.5051 15.5388 18.5999 15.3001 18.5999Z" fill="#CECED9"/>
<path d="M10.4998 18.5998H8.6998C8.46111 18.5998 8.23219 18.505 8.06341 18.3362C7.89463 18.1674 7.7998 17.9385 7.7998 17.6998V11.6998C7.7998 11.4611 7.89463 11.2322 8.06341 11.0634C8.23219 10.8946 8.46111 10.7998 8.6998 10.7998H10.4998C10.7385 10.7998 10.9674 10.8946 11.1362 11.0634C11.305 11.2322 11.3998 11.4611 11.3998 11.6998V17.6998C11.3998 17.9385 11.305 18.1674 11.1362 18.3362C10.9674 18.505 10.7385 18.5998 10.4998 18.5998Z" fill="#CECED9"/>
<path d="M5.7 18.6002H3.9C3.66131 18.6002 3.43239 18.5054 3.2636 18.3366C3.09482 18.1678 3 17.9389 3 17.7002V14.1002C3 13.8615 3.09482 13.6326 3.2636 13.4638C3.43239 13.295 3.66131 13.2002 3.9 13.2002H5.7C5.93869 13.2002 6.16761 13.295 6.3364 13.4638C6.50518 13.6326 6.6 13.8615 6.6 14.1002V17.7002C6.6 17.9389 6.50518 18.1678 6.3364 18.3366C6.16761 18.5054 5.93869 18.6002 5.7 18.6002Z" fill="#CECED9"/>
</svg>
