<svg width="7" height="12" viewBox="0 0 7 12" fill="none" xmlns="http://www.w3.org/2000/svg">
<path d="M0.499815 5.99981C0.499054 6.13142 0.52428 6.26188 0.574044 6.38372C0.623809 6.50556 0.697134 6.61637 0.789815 6.70981L4.78981 10.7098C4.88305 10.8031 4.99374 10.877 5.11557 10.9275C5.23739 10.9779 5.36796 11.0039 5.49981 11.0039C5.63167 11.0039 5.76224 10.9779 5.88406 10.9275C6.00589 10.877 6.11658 10.8031 6.20982 10.7098C6.30305 10.6166 6.37701 10.5059 6.42748 10.3841C6.47794 10.2622 6.50391 10.1317 6.50391 9.99981C6.50391 9.86796 6.47794 9.73739 6.42748 9.61556C6.37701 9.49374 6.30305 9.38305 6.20982 9.28981L2.89981 5.99981L6.07982 2.69981C6.18211 2.60782 6.26431 2.49572 6.3213 2.3705C6.37829 2.24529 6.40882 2.10967 6.411 1.97211C6.41318 1.83456 6.38696 1.69803 6.33397 1.57108C6.28097 1.44412 6.20236 1.32947 6.10303 1.23428C6.00371 1.1391 5.88581 1.06543 5.75672 1.01789C5.62762 0.970342 5.49011 0.949947 5.35277 0.957975C5.21544 0.966003 5.08123 1.00228 4.95856 1.06454C4.83588 1.1268 4.72737 1.2137 4.63982 1.31981L0.779815 5.31981C0.6035 5.50269 0.503391 5.74581 0.499815 5.99981Z" fill="white"/>
</svg>
