<svg width="24" height="24" viewBox="0 0 24 24" fill="none" xmlns="http://www.w3.org/2000/svg">
<path d="M21.425 14.1249C21.7476 12.6047 21.6914 11.0285 21.2612 9.5352C20.8311 8.04188 20.0402 6.6773 18.9584 5.56168C17.8765 4.44607 16.5369 3.61368 15.0575 3.13787C13.5781 2.66206 12.0044 2.55743 10.475 2.83321C9.64055 2.31859 8.68482 2.03383 7.70479 2.00782C6.72475 1.98181 5.75527 2.21547 4.89469 2.68511C4.03412 3.15474 3.31307 3.84364 2.80469 4.68191C2.29631 5.52018 2.01869 6.478 2 7.45821C2 8.45821 2.275 9.39987 2.75833 10.2082C2.45701 11.7316 2.53471 13.3056 2.9846 14.7919C3.43449 16.2781 4.24278 17.631 5.33835 18.7315C6.43392 19.8321 7.78317 20.6464 9.2674 21.103C10.7516 21.5596 12.3253 21.6443 13.85 21.3499C14.6333 21.7665 15.5167 21.9999 16.4667 21.9999C17.9239 22.0087 19.3251 21.4389 20.3626 20.4155C21.4001 19.3921 21.989 17.9988 22 16.5415C22 15.6749 21.7917 14.8499 21.425 14.1249ZM17 16.5999C16.5038 17.258 15.8303 17.761 15.0583 18.0499C14.225 18.3915 13.225 18.5665 12.0833 18.5665C10.9042 18.6075 9.7324 18.3645 8.66667 17.8582C8.025 17.5249 7.5 17.0582 7.09167 16.4832C6.71718 15.9935 6.50456 15.3993 6.48333 14.7832C6.48333 14.4499 6.61667 14.1415 6.88333 13.8999C7.14167 13.6499 7.475 13.5332 7.88333 13.5332C8.20833 13.5332 8.49167 13.6332 8.71667 13.8165C8.94167 14.0082 9.125 14.2749 9.275 14.6249C9.44167 15.0082 9.63333 15.3332 9.825 15.5832C10.0167 15.8332 10.2833 16.0332 10.625 16.1915C11.0631 16.3723 11.5347 16.4575 12.0083 16.4415C12.8 16.4415 13.45 16.2749 13.925 15.9415C14.4083 15.6249 14.6417 15.2415 14.6417 14.7749C14.6417 14.3999 14.5167 14.1082 14.2667 13.8832C13.9733 13.6241 13.6261 13.4334 13.25 13.3249C12.8167 13.1915 12.2333 13.0499 11.5 12.8999C10.6456 12.73 9.80876 12.4818 9 12.1582C8.36602 11.905 7.8048 11.4984 7.36667 10.9749C6.94462 10.4394 6.72348 9.77307 6.74167 9.09154C6.74167 8.38321 6.96667 7.74154 7.39167 7.19154C7.87706 6.59825 8.52178 6.15591 9.25 5.91654C10.1511 5.61072 11.0986 5.46409 12.05 5.48321C12.9083 5.48321 13.65 5.57487 14.275 5.76654C14.9083 5.95821 15.4417 6.22487 15.8583 6.54154C16.275 6.86654 16.5833 7.20821 16.775 7.57487C16.975 7.93321 17.075 8.29154 17.075 8.64154C17.075 8.97487 16.95 9.28321 16.6917 9.55821C16.425 9.81654 16.1 9.95821 15.7083 9.95821C15.3583 9.95821 15.075 9.87487 14.8833 9.70821C14.6572 9.48864 14.4661 9.2357 14.3167 8.95821C14.1109 8.5496 13.8179 8.19116 13.4583 7.90821C13.1417 7.66654 12.6083 7.54987 11.875 7.54987C11.1833 7.54987 10.625 7.68321 10.2083 7.94987C9.81667 8.20821 9.625 8.49987 9.625 8.84987C9.625 9.06654 9.68333 9.24154 9.81667 9.39987C9.95 9.56654 10.15 9.70821 10.3833 9.82487C10.6287 9.94708 10.8855 10.0448 11.15 10.1165C11.4167 10.1999 11.8583 10.2999 12.4667 10.4415C13.2417 10.6082 13.95 10.7832 14.5833 10.9832C15.2167 11.1832 15.7667 11.4332 16.2083 11.7165C16.6667 12.0082 17.0333 12.3832 17.2917 12.8332C17.5417 13.2915 17.675 13.8499 17.675 14.4999C17.675 15.2665 17.45 15.9749 17.0083 16.5915L17 16.5999Z" fill="white"/>
</svg>
