<svg width="24" height="24" viewBox="0 0 24 24" fill="none" xmlns="http://www.w3.org/2000/svg">
<path d="M20.9166 11.9334C21.7073 12.8896 22.0924 14.1173 21.9897 15.3538C21.8869 16.5903 21.3043 17.7375 20.3666 18.55C19.7833 19.05 19.5833 19.4667 19.95 20.1417C20.0166 20.2667 20.0333 20.425 20.0666 20.575C19.4833 20.3167 18.9416 19.925 18.3666 19.8667C17.7916 19.8084 17.1916 20.1334 16.5916 20.2C15.7249 20.3081 14.845 20.2229 14.0151 19.9506C13.1852 19.6783 12.4258 19.2256 11.7916 18.625C9.23329 16.2584 9.59996 12.625 12.5583 10.6917C15.1916 8.96671 19.0583 9.54171 20.9083 11.9334H20.9166ZM14.7416 6.07505C15.4007 6.92096 15.8002 7.93993 15.8916 9.00838C14.0416 9.10005 12.425 9.66671 11.1166 10.9334C10.4646 11.5411 9.96484 12.2939 9.65791 13.1307C9.35098 13.9675 9.24548 14.8649 9.34996 15.75C8.62496 15.6584 7.96662 15.5584 7.29996 15.5C7.06662 15.4834 6.79996 15.5084 6.59996 15.6167C5.95829 15.9834 5.34162 16.3917 4.59996 16.85C4.74162 16.2417 4.82496 15.7084 4.98329 15.2C5.09162 14.825 5.04162 14.6167 4.69162 14.3667C2.46662 12.7917 1.52496 10.4417 2.23329 8.01671C2.88329 5.76671 4.48329 4.40838 6.64996 3.70005C8.07907 3.22796 9.61807 3.20235 11.0621 3.62662C12.5061 4.0509 13.7867 4.90494 14.7333 6.07505H14.7416ZM13.3833 12.7167C12.9916 12.7167 12.6666 13.05 12.6833 13.4334C12.7021 13.6048 12.7835 13.7633 12.9119 13.8784C13.0403 13.9935 13.2067 14.0571 13.3791 14.0571C13.5516 14.0571 13.7179 13.9935 13.8464 13.8784C13.9748 13.7633 14.0562 13.6048 14.075 13.4334C14.0772 13.3408 14.061 13.2486 14.0273 13.1623C13.9936 13.076 13.9432 12.9972 13.8788 12.9306C13.8145 12.8639 13.7376 12.8107 13.6525 12.774C13.5674 12.7372 13.4759 12.7178 13.3833 12.7167ZM17.6916 12.7167C17.325 12.7167 17.0166 13.0084 17 13.3834C16.9833 13.775 17.2916 14.0917 17.6833 14.0917C17.7708 14.0939 17.858 14.0789 17.9397 14.0474C18.0214 14.0159 18.0962 13.9687 18.1596 13.9083C18.2231 13.8479 18.274 13.7757 18.3096 13.6956C18.3451 13.6155 18.3645 13.5293 18.3666 13.4417C18.3723 13.3492 18.3591 13.2566 18.3278 13.1693C18.2965 13.0821 18.2478 13.0022 18.1847 12.9344C18.1216 12.8666 18.0453 12.8123 17.9605 12.7749C17.8758 12.7375 17.7843 12.7177 17.6916 12.7167ZM11.8083 7.39171C11.35 7.40005 10.9666 7.79171 10.975 8.23338C10.9771 8.34354 11.0011 8.45218 11.0455 8.55301C11.0899 8.65385 11.1539 8.74487 11.2337 8.82082C11.3135 8.89677 11.4076 8.95613 11.5105 8.99548C11.6135 9.03483 11.7232 9.05337 11.8333 9.05005C12.3 9.05005 12.6666 8.68338 12.6583 8.21671C12.6572 8.10656 12.6343 7.99772 12.5909 7.89648C12.5475 7.79524 12.4844 7.70361 12.4054 7.6269C12.3263 7.55018 12.2329 7.48989 12.1304 7.44952C12.0279 7.40915 11.9184 7.3895 11.8083 7.39171ZM6.52496 7.39171C6.41482 7.38726 6.3049 7.40469 6.20155 7.44302C6.0982 7.48134 6.00348 7.53978 5.92288 7.61496C5.84227 7.69014 5.77738 7.78056 5.73197 7.88099C5.68655 7.98143 5.66151 8.08987 5.65829 8.20005C5.64996 8.66671 6.00829 9.03338 6.47496 9.05005C6.94162 9.05838 7.33329 8.70005 7.34996 8.25005C7.35012 8.02806 7.26428 7.81464 7.11045 7.6546C6.95662 7.49456 6.74677 7.40033 6.52496 7.39171Z" fill="white"/>
</svg>
