<svg width="24" height="24" viewBox="0 0 24 24" fill="none" xmlns="http://www.w3.org/2000/svg">
<path d="M22 11.75C22 17.125 17.6083 21.4833 12.1833 21.4833C10.4583 21.4833 8.85 21.0417 7.43333 20.275L2 22L3.775 16.775C2.84816 15.2597 2.35791 13.5179 2.35833 11.7417C2.36667 6.35833 6.76667 2 12.1917 2C17.6 2 22 6.35833 22 11.75ZM12.1833 3.54167C7.63333 3.54167 3.93333 7.21667 3.93333 11.7333C3.93333 13.525 4.51667 15.1833 5.5 16.5333L4.46667 19.5833L7.63333 18.5833C8.98503 19.4693 10.5672 19.9387 12.1833 19.9333C16.7333 19.9333 20.4333 16.2667 20.4333 11.7417C20.4223 9.56239 19.5477 7.47638 18.0013 5.94085C16.4548 4.40533 14.3626 3.54556 12.1833 3.55V3.54167ZM17.1417 13.9833C17.075 13.8833 16.9167 13.825 16.675 13.7083C16.4417 13.5917 15.2583 13.0083 15.0333 12.9333C14.8167 12.85 14.65 12.8083 14.4917 13.05C14.325 13.2917 13.8667 13.825 13.7333 13.9833C13.5917 14.15 13.45 14.1667 13.2083 14.05C12.9667 13.925 12.1917 13.675 11.275 12.8583C10.7515 12.3772 10.3022 11.8212 9.94167 11.2083C9.79167 10.9667 9.91667 10.8417 10.0417 10.725C10.15 10.6167 10.2833 10.4417 10.4 10.3083C10.525 10.1667 10.5667 10.0583 10.6417 9.90833C10.725 9.74167 10.6833 9.60833 10.625 9.49167C10.5583 9.36667 10.0833 8.19167 9.875 7.71667C9.675 7.23333 9.475 7.31667 9.34167 7.31667C9.2 7.31667 9.03333 7.29167 8.875 7.29167C8.70833 7.29167 8.45833 7.35833 8.23333 7.59167C8.01667 7.83333 7.4 8.40833 7.4 9.59167C7.4 10.7583 8.25833 11.8917 8.375 12.0583C8.49167 12.2167 10.0417 14.7 12.4833 15.6583C14.9333 16.6167 14.9333 16.3 15.375 16.2583C15.8167 16.2167 16.7917 15.675 17 15.125C17.2 14.5667 17.2 14.0833 17.1417 13.9833Z" fill="white"/>
</svg>
