<svg width="91" height="20" viewBox="0 0 91 20" fill="none" xmlns="http://www.w3.org/2000/svg">
<path d="M51.3872 17.5197C50.8349 17.5197 50.3872 17.072 50.3872 16.5197V1.71973C50.3872 1.16744 50.8349 0.719727 51.3872 0.719727H53.0832C53.6355 0.719727 54.0832 1.16744 54.0832 1.71973V6.36773C54.0832 6.92001 54.5309 7.36773 55.0832 7.36773H59.8992C60.4515 7.36773 60.8992 6.92001 60.8992 6.36773V1.71973C60.8992 1.16744 61.3469 0.719727 61.8992 0.719727H63.5952C64.1475 0.719727 64.5952 1.16744 64.5952 1.71973V16.5197C64.5952 17.072 64.1475 17.5197 63.5952 17.5197H61.8992C61.3469 17.5197 60.8992 17.072 60.8992 16.5197V11.7757C60.8992 11.2234 60.4515 10.7757 59.8992 10.7757H55.0832C54.5309 10.7757 54.0832 11.2234 54.0832 11.7757V16.5197C54.0832 17.072 53.6355 17.5197 53.0832 17.5197H51.3872Z" fill="#FF7733"/>
<path d="M79.3176 15.8637C77.9896 17.1597 76.3336 17.8077 74.3496 17.8077C72.3656 17.8077 70.7096 17.1677 69.3816 15.8877C68.0696 14.5917 67.4136 12.9997 67.4136 11.1117C67.4136 9.23973 68.0776 7.65573 69.4056 6.35973C70.7496 5.06373 72.4136 4.41573 74.3976 4.41573C76.3816 4.41573 78.0296 5.06373 79.3416 6.35973C80.6696 7.63973 81.3336 9.22373 81.3336 11.1117C81.3336 12.9837 80.6616 14.5677 79.3176 15.8637ZM74.3976 14.6637C75.4056 14.6637 76.2136 14.3277 76.8216 13.6557C77.4296 12.9677 77.7336 12.1197 77.7336 11.1117C77.7336 10.1357 77.4136 9.30373 76.7736 8.61573C76.1496 7.91173 75.3416 7.55973 74.3496 7.55973C73.3416 7.55973 72.5336 7.90373 71.9256 8.59173C71.3176 9.26373 71.0136 10.1037 71.0136 11.1117C71.0136 12.0877 71.3256 12.9277 71.9496 13.6317C72.5896 14.3197 73.4056 14.6637 74.3976 14.6637Z" fill="#FF7733"/>
<path d="M88.1191 17.7357C86.9191 17.7357 85.9911 17.4477 85.3351 16.8717C84.6951 16.2797 84.3751 15.2797 84.3751 13.8717V8.54373C84.3751 8.11957 84.0312 7.77573 83.6071 7.77573C83.1829 7.77573 82.8391 7.43188 82.8391 7.00773V5.42373C82.8391 4.99957 83.1829 4.65573 83.6071 4.65573C84.0312 4.65573 84.3751 4.31188 84.3751 3.88773V2.36773C84.3751 1.81544 84.8228 1.36773 85.3751 1.36773H87.0231C87.5754 1.36773 88.0231 1.81544 88.0231 2.36773V3.65573C88.0231 4.20801 88.4708 4.65573 89.0231 4.65573H90.0471C90.5994 4.65573 91.0471 5.10344 91.0471 5.65573V6.77573C91.0471 7.32801 90.5994 7.77573 90.0471 7.77573H89.0231C88.4708 7.77573 88.0231 8.22344 88.0231 8.77573V13.2717C88.0231 14.1037 88.4151 14.5197 89.1991 14.5197C89.2648 14.5197 89.3301 14.5181 89.3949 14.5149C90.1522 14.4775 90.9991 14.9863 90.9991 15.7444V16.4237C90.9991 16.7759 90.8168 17.1093 90.4958 17.2545C89.7864 17.5753 88.9941 17.7357 88.1191 17.7357Z" fill="#FF7733"/>
<path d="M1 17.52C0.447715 17.52 0 17.0723 0 16.52V1.72C0 1.16771 0.447715 0.719999 1 0.719999H6.864C8.848 0.719999 10.416 1.256 11.568 2.328C12.72 3.4 13.296 4.816 13.296 6.576C13.296 8.448 12.656 9.904 11.376 10.944C10.096 11.968 8.472 12.48 6.504 12.48H4.696C4.14372 12.48 3.696 12.9277 3.696 13.48V16.52C3.696 17.0723 3.24828 17.52 2.696 17.52H1ZM3.696 8.192C3.696 8.74429 4.14371 9.192 4.696 9.192H6.624C7.536 9.192 8.248 8.952 8.76 8.472C9.288 7.992 9.552 7.368 9.552 6.6C9.552 5.784 9.288 5.16 8.76 4.728C8.232 4.28 7.496 4.056 6.552 4.056H4.696C4.14371 4.056 3.696 4.50371 3.696 5.056V8.192Z" fill="white"/>
<path d="M16.5193 3.24C15.967 3.24 15.5192 2.79228 15.5192 2.24V1C15.5192 0.447716 15.967 0 16.5192 0H18.3592C18.9115 0 19.3592 0.447715 19.3592 1V2.24C19.3592 2.79228 18.9115 3.24 18.3592 3.24H16.5193ZM16.6152 17.52C16.063 17.52 15.6152 17.0723 15.6152 16.52V5.656C15.6152 5.10371 16.063 4.656 16.6152 4.656H18.2633C18.8155 4.656 19.2633 5.10372 19.2633 5.656V16.52C19.2633 17.0723 18.8155 17.52 18.2633 17.52H16.6152Z" fill="white"/>
<path d="M28.5614 17.808C26.6414 17.808 25.0414 17.16 23.7614 15.864C22.4974 14.568 21.8654 12.984 21.8654 11.112C21.8654 9.256 22.5054 7.68 23.7854 6.384C25.0654 5.072 26.6734 4.416 28.6094 4.416C30.3453 4.416 31.8265 4.94788 33.0531 6.01165C33.4522 6.35781 33.4319 6.9648 33.0604 7.34047L32.2733 8.13638C31.891 8.523 31.2762 8.52051 30.819 8.22622C30.1289 7.78207 29.3844 7.56 28.5854 7.56C27.6894 7.56 26.9454 7.904 26.3534 8.592C25.7614 9.28 25.4654 10.12 25.4654 11.112C25.4654 12.12 25.7614 12.968 26.3534 13.656C26.9614 14.328 27.7534 14.664 28.7294 14.664C29.4742 14.664 30.2058 14.4151 30.9243 13.9173C31.3719 13.6072 31.9878 13.6058 32.3706 13.9929L33.148 14.779C33.5229 15.1581 33.5389 15.7706 33.1403 16.1248C32.6366 16.5725 32.1103 16.9336 31.5614 17.208C30.7614 17.608 29.7614 17.808 28.5614 17.808Z" fill="white"/>
<path d="M37.0004 17.52C36.4481 17.52 36.0004 17.0723 36.0004 16.52V0.999999C36.0004 0.447715 36.4481 0 37.0004 0H38.6484C39.2007 0 39.6484 0.447715 39.6484 1V6.75721C39.6484 7.67025 40.7714 8.10573 41.3869 7.43139L43.623 4.98182C43.8124 4.77426 44.0805 4.656 44.3615 4.656H45.9306C46.8134 4.656 47.2631 5.71641 46.6495 6.35108L43.9455 9.14787C43.6218 9.48274 43.5721 9.9968 43.8257 10.3875L47.4536 15.9755C47.8855 16.6407 47.4081 17.52 46.6149 17.52H44.828C44.4868 17.52 44.1692 17.3461 43.9854 17.0586L41.6096 13.3422C41.2594 12.7943 40.4877 12.7211 40.0408 13.1934L39.9221 13.3188C39.7463 13.5045 39.6484 13.7505 39.6484 14.0062V16.52C39.6484 17.0723 39.2007 17.52 38.6484 17.52H37.0004Z" fill="white"/>
</svg>
